<?xml version="1.0" encoding="UTF-8"?>
<svg id="b" data-name="Layer 2" xmlns="http://www.w3.org/2000/svg" width="450.711" height="483.897" viewBox="0 0 450.711 483.897">
  <g id="c" data-name="Layer 1">
    <path d="M97.082,316.648c5.302-5.788,10.528-31.49,70.579-25.415,38.624,3.908,61.44,17.435,86.817,47.936.982,1.18,1.035,3.133,1.614,5.038.711-.076,1.783-.19,3.242-.345-4.67-10.206-6.614-13.465-8.182-18.439-9.359-29.699-3.829-77.029,20.982-105.531,2.005-2.303,2.461-4.716,1.536-7.373-.964-2.771-3.561-1.991-5.595-1.965-118.587,1.481-121.428.679-132.769,5.891-2.54-3.774-2.517-3.745-6.08-.912-.494.393-11.152,5.338-15.173,9.164-28.87,27.47-33.161,62.401-16.972,91.951Z" stroke-width="0"/>
    <path d="M344.433,337.227c.243.795,3.293,18.22,12.849,30.536,5.027,6.48-2.817,13.803-9.292,8.118-3.949-3.468.502-.662-11.137-8.563-.583,12.594-1.51,23.83-6.397,34.812,8.497,5.359,17.316,8.848,26.57,10.888,14.653,3.231,10.66,5.159,21.59-5.994,51.421-52.469,76.158-115.247,71.551-189-1.972-31.57-12.511-67.138-18.037-77.743,10.093,69.769-16.871,133.239-78.718,176.691-9.925,3.678-11.835,10.9-8.979,20.254Z" stroke-width="0"/>
    <path d="M133.168,200.386c10.012-21.361,38.587-23.426,61.896-20.654,23.911,2.843,45.467,12.932,66.959,23.031,2.475-1.926.838-2.96-.74-4.138-22.743-16.969-19.621-55.004,8.516-83.076-22.82-2.721-80.154,5.575-102.907,8.804-3.079.437-2.349-3.276-9.601,1.338-44.366,28.225-35.754,75.25-24.123,74.694Z" stroke-width="0"/>
    <path d="M344.18,364.195c-2.378-10.079-3.91-8.654-6.399-16.095-7.975-23.843-1.639-60.211,18.895-84.68,2.429-2.895,2.946-5.732,2.027-9.417-.908-.153-1.39-.302-1.874-.307-94.773-.933-93.542-3.098-94.689,2.837-6.995,36.192-5.91,20.306-3.885,57.112.24,4.359,3.037,2.994,14.578,5.663,28.535,6.599,50.951,22.943,71.347,44.888Z" stroke-width="0"/>
    <path d="M151.635,397.017c-42.508-16.262-82.04-5.293-106.222,21.75,3.96.512,23.922-13.508,68.061-7.067,69.896,10.2,167.349,99.549,260.88,63.801,6.361-2.431,12.286-6.006,18.405-9.072-100.106,29.443-198.244-53.007-241.125-69.413Z" stroke-width="0"/>
    <path d="M283.769,168.01c-9.176,2.22-17.255,7.508-24.408,15.196,17.687,18.727,23.702,15.551,23.547,24.076,9.353,0,11.29-.466,15.752-.293,7.135.276,8.846,10.599.701,12.172-5.347,1.033-10.58-1.721-20.702,7.147,33.745-4.427,43.658,3.336,80.226,21.186-3.275-5.888-35.429-26.965,9.842-83.64-8.789-.452-77.111,2.257-84.957,4.155Z" stroke-width="0"/>
    <path d="M88.953,380.272c-13.128-12.258-14.466-17.858-8.03-35.159L7.685,285.782c-3.949-3.228-3.801-7.838.153-11.015,5.842-4.694,8.82-.535,24.257,11.232-5.713-10.846-23.225-26.067-29.865-84.474-9.054,72.01,9.409,135.766,56.133,190.516,10.863-4.179,20.796-8.001,30.59-11.769Z" stroke-width="0"/>
    <path d="M169.06,109.986c13.324-20.377,35.449-22.798,53.72-16.129,3.206,1.17,27.044,10.559,28.742,12.189,2.406,2.309,1.218,3.079,3.911-.871-12.136-4.717-18.483-28.825,1.543-49.443-14.006,2.273-28.011,4.545-42.434,6.886,2.118-69.911,2.694-59.313-.792-45.221-5.752-5.482-6.59-14.797-15.374-17.397-4.93,19.192-8.5,26.748-25.169,14.82,3.741,8.964,11.508,15.952,19.793,11.099,2.568-1.504,10.409-10.855,14.471-1.857.78,1.727,6.551,14.664,6.467,18.155-.527,21.732.114,20.277-5.624,21.094-19.112,2.723-34.71,1.459-44.147,22.7-4.152,9.347-4.721,18.858-2.292,28.668,3.537.03,5.467-2.065,7.186-4.693Z" stroke-width="0"/>
    <path d="M158.563,370.657c-9.03.87-17.512,3.365-25.906,9.742,5.475.816,9.87,2.17,14.201,1.986,65.73-2.797,89.121,59.525,179.066,65.721,9.017.621,18.112.105,27.171.105-4.822-1.554-9.716-2.059-14.581-2.765-96.871-14.058-119.434-80.622-179.951-74.788Z" stroke-width="0"/>
    <path d="M43.68,237.764c12.933,6.754,28.743,4.335,38.696-5.651,10.176-10.211,12.578-27.763,7.333-37.625-2.653,30.371-37.189,32.218-46.925,12.436-5.927-12.042-3.041-22.943,8.984-33.935-29.966,3.666-37.635,49.344-8.087,64.775Z" stroke-width="0"/>
    <path d="M323.83,144.039c14.323,3.856,21.606,9.857,33.493,12.51-16.832-11.521-13.86-26.353-5.402-38.194-11.195,0-18.5,1.085-41.846,2.282-16.148.828-27.148,11.878-27.606,28.167-.105,3.729.242,7.47.381,11.206,6.468,1.762,12.071-23.754,40.98-15.971Z" stroke-width="0"/>
    <path d="M352.54,423.754c-31.636-7.101-41.531-25.919-72.929-22.029-3.976.493-8.136.718-11.708,3.264,4.791,4.412,6.694,5.601,11.402,5.974,25.338,2.007,69.153,36.27,119.192,13.147-15.371,3.691-30.649,3.08-45.957-.356Z" stroke-width="0"/>
    <path d="M217.997,324.119c2.028-.539,4.038-1.145,6.6-1.875-9.731-7.904-19.953-13.362-31.928-16.852-1.909,10.936-3.725,21.343-5.48,31.396,8.48,7.581,6.964-6.336,30.808-12.669Z" stroke-width="0"/>
    <path d="M159.867,460.581c-19.64-16.996-41.247-30.183-67.287-34.787,20.115,16.077,42.447,27.86,67.287,34.787Z" stroke-width="0"/>
    <path d="M275.73,364.968v-16.267c-3.021.181-5.358-.35-6.163,3.326-1.094,4.999-5.984,6.124-9.88,2.705-3.67-3.221.136-2.517-30.834-1.717,6.097,4.065,40.184,12.229,46.876,11.953Z" stroke-width="0"/>
    <path d="M315.444,95.709c2.6,5.833,6.33,11.345,4.65,18.401.421-.051.841-.102,1.262-.153,0-30.74.621-26.805-1.78-24.234-4.045-3.609-4.938-9.783-10.886-11.836-.888,2.728-1.576,5.265-2.531,7.698-5.299,13.498-14.248,4.606-16.202,4.623,10.964,20.408,19.992-6.827,25.488,5.501Z" stroke-width="0"/>
    <path d="M233.22,44.719c5.809-32.269,5.689-25.905,1.414-21.13-5.5,6.144-7.767,3.753-16.294.062v17.251q4.668-1.062,14.88,3.817Z" stroke-width="0"/>
    <path d="M298.412,341.931c-4.657,1.387-8.691,2.588-12.99,3.868.207,7.551.589,14.651,2.46,22.658,8.177-7.619,9.245-16.686,10.53-26.526Z" stroke-width="0"/>
    <path d="M333.96,109.613c1.085-6.234,2.121-12.184,3.157-18.133-3.018,5.765-7.558,6.748-13.558,3.271-.653,13.204-.93,11.85.156,13.198,4.459-4.472,6.799.32,10.246,1.664Z" stroke-width="0"/>
    <path d="M321.436,84.635c0,3.532-.199,3.514.593.072l-.593-.072Z" stroke-width="0"/>
    <path d="M321.436,87.286c-.096.418-.08.301-.08.531.102-.109.08-.014.08-.531Z" stroke-width="0"/>
    <path d="M392.909,466.354c-.197.098-.231.105.095.008.382.033.607.019-.095-.008Z" stroke-width="0"/>
    <path d="M33.064,287.267c-.831-1.245-.656-1.03-.968-1.269.194.369.031.145.968,1.269Z" stroke-width="0"/>
    <path d="M33.418,287.733c-.224-.319-.148-.219-.354-.466.224.335.147.235.354.466Z" stroke-width="0"/>
    <path d="M337.24,91.145c-.131.325-.105.234-.123.335.053-.1.014.002.123-.335Z" stroke-width="0"/>
  </g>
</svg>