<?xml version="1.0" encoding="UTF-8"?>
<svg id="b" data-name="Layer 2" xmlns="http://www.w3.org/2000/svg" width="374.945" height="475.008" viewBox="0 0 374.945 475.008">
  <g id="c" data-name="Layer 1">
    <g>
      <path d="M333.808,176.605c-11.07-13.01-22.91-24.03-35.3-33.2-6.82-5.05-13.81-9.54-20.92-13.49-49.56-27.52-105.2-28.83-153.58-11.29-24.75,8.98-47.6,22.88-66.76,40.74C20.598,193.505-2.572,242.065.228,298.155c.2.83.41,1.67.63,2.5,14.13,53.83,53.98,104.53,107.47,129.04,89.96,41.22,185.58,14.33,242.46-47.74,14.09-24.05,22.71-51.61,23.96-81.29,1.97-46.52-10.79-88.64-40.94-124.06ZM95.718,240.415c-36.25.01-46.59-39.79-30.79-62.25,6.25-8.86,16.55-15.02,30.94-14.97,13.59.04,25.7,7.12,32.77,17.68,4.1,6.13,6.5,13.43,6.51,21.21,0,20.54-18.3,38.32-39.43,38.33ZM274.768,194.955c-18.93.26-18.9-28.51.03-28.28,18.39.23,18.01,28.04-.03,28.28ZM41.188,405.425c-.37-.4-.74-.78-1.12-1.18.17.53.35,1.04.92,1.18.19.61.34,1.25,1.23,1.02-.07-.66-.44-.97-1.03-1.02Z" fill="#6a984d" stroke-width="0"/>
      <path d="M108.328,429.695C54.838,405.185,14.988,354.485.858,300.655c-.22-.83-.43-1.67-.63-2.5.65,13.04,2.7,26.49,6.31,40.26,12.98,49.42,49.57,95.97,98.67,118.47,96.38,44.16,199.83,3.17,245.58-74.93-56.88,62.07-152.5,88.96-242.46,47.74ZM40.988,405.425c-.57-.14-.75-.65-.92-1.18.38.4.75.78,1.12,1.18.59.05.96.36,1.03,1.02-.89.23-1.04-.41-1.23-1.02Z" fill="#3a6742" stroke-width="0"/>
      <path d="M41.226,405.468c-.035-.038-.188-.049-.236-.048,0,0,.238.049.236.048Z" fill="#6a984d" stroke-width="0"/>
    </g>
    <path d="M122.735,24.527c16.5,19.225,34.443,37.181,51.131,57.358-8.996.682-16.895-.87-24.349-3.889-36.024-14.59-45.761-40.665-49.263-75.218-.173-1.708-.061-2.845,2.213-2.776,53.336,1.618,80.681,39.994,75.281,76.929-53.871-53.605-53.241-54.237-55.014-52.405Z" fill="#2e3e23" stroke-width="0"/>
    <path d="M198.768,77.214c-5.735-35.599,18.296-69.775,63.27-76.072,14.464-2.025,14.084-1.405,12.516,11.203-5.75,46.21-40.373,71.118-73.224,69.76,17.924-21.894,53.347-57.359,52.666-59.64-3.518,2.563-54.434,54.079-55.228,54.749Z" fill="#2e3e23" stroke-width="0"/>
    <path d="M39.312,403.309c.344.368.687.737,1.032,1.107-.343-.368-.688-.737-1.032-1.107Z" fill="#2e3e23" stroke-width="0"/>
    <path d="M41.228,405.465c-.09-.01-.17-.02-.24-.04-.57-.14-.75-.65-.92-1.18.38.4.75.78,1.12,1.18.01.01.03.03.04.04Z" fill="#2e3e23" stroke-width="0"/>
    <path d="M334.637,405.451c.328-.383.656-.766.982-1.147-.329.384-.655.765-.982,1.147Z" fill="#2e3e23" stroke-width="0"/>
    <path d="M42.218,406.445c-.89.23-1.04-.41-1.23-1.02v-.01h.03c.06,0,.12,0,.17.01.59.05.96.36,1.03,1.02Z" fill="#2e3e23" stroke-width="0"/>
    <path d="M95.721,240.416c-50.549.015-50.723-77.395.149-77.225,21.472.072,39.273,17.703,39.274,38.898,0,20.531-18.297,38.32-39.423,38.327ZM113.41,216.235c21.775-.101,20.665-32.241-.359-32.169-21.614.073-21.808,32.272.359,32.169Z" fill="#f1ebda" stroke-width="0"/>
    <path d="M288.52,180.772c.019,19.049-28.216,18.49-28.033.032.186-18.661,28.015-18.857,28.033-.032Z" fill="#f1ebda" stroke-width="0"/>
    <path d="M251.402,25.103c.422-1.274,1.535-1.865,2.595-2.637.565,1.892-1.121,2.362-1.964,3.324-.188-.25-.399-.478-.631-.687Z" fill="#f1ebda" stroke-width="0"/>
    <path d="M250.354,26.056c1.155-1.051.972-1.205,1.679-.267-1.321,1.376-.94,1.359-1.679.267Z" fill="#f1ebda" stroke-width="0"/>
    <path d="M249.328,27.022c1.234-1.163.873-1.192,1.613-.097-.862.865-.484.878-1.613.097Z" fill="#f1ebda" stroke-width="0"/>
    <path d="M113.41,216.235c-22.176.103-21.947-32.096-.359-32.169,21.016-.071,22.108,32.069.359,32.169Z" fill="#2e3e23" stroke-width="0"/>
  </g>
</svg>